<svg width="20" height="20" viewBox="0 0 20 20" fill="none" xmlns="http://www.w3.org/2000/svg">
<path fill-rule="evenodd" clip-rule="evenodd" d="M9.72043 15.5262L4.77764 18.2341C4.38299 18.4392 3.8968 18.294 3.67924 17.9061V17.9061C3.6163 17.7859 3.58234 17.6527 3.58008 17.5171V5.5186C3.58008 3.23027 5.14377 2.31494 7.39396 2.31494H12.68C14.8615 2.31494 16.4939 3.16925 16.4939 5.36605V17.5171C16.4939 17.7335 16.4079 17.9411 16.2548 18.0942C16.1018 18.2473 15.8942 18.3332 15.6777 18.3332C15.5396 18.3311 15.4039 18.2971 15.2811 18.2341L10.3078 15.5262C10.1245 15.4272 9.90369 15.4272 9.72043 15.5262Z" stroke="#60656D" stroke-width="1.5" stroke-linecap="round" stroke-linejoin="round"/>
<path d="M6.97461 7.76884H13.0539" stroke="#60656D" stroke-width="1.5" stroke-linecap="round" stroke-linejoin="round"/>
</svg>
