<svg width="67" height="51" viewBox="0 0 67 51" fill="none" xmlns="http://www.w3.org/2000/svg">
<path d="M12.0228 29.4658C12.0228 29.4658 12.0471 29.4414 12.0714 29.3928L1.75231 32.7027L11.7794 30.926C11.8524 30.1959 11.9497 29.6118 12.0228 29.4658ZM17.7178 23.1867C17.6934 23.1867 17.6934 23.1867 17.6691 23.1623C17.5231 23.0893 17.4014 23.0407 17.304 22.9433L4.06437 27.8352L16.2332 24.7443C16.6956 24.1602 17.2067 23.6248 17.7178 23.1867ZM34.535 11.4316L6.08439 22.8946L17.4014 19.4144C17.5231 19.244 17.6691 19.0736 17.8394 18.9519C18.2045 18.6356 19.4214 18.4895 20.7113 18.4165L30.6167 15.35C31.7362 13.9627 33.1964 12.4782 34.535 11.4316ZM48.4804 47.938L26.6983 48.6194C26.3819 49.0088 26.0412 49.3496 25.7005 49.6416L51.62 50.1284C50.5005 49.6173 49.4296 48.8872 48.4804 47.938ZM32.1499 43.3625C31.8579 43.5329 31.2981 43.7519 29.7648 43.7033C29.4971 43.7033 29.2294 43.6789 28.986 43.6546C28.8887 44.0196 28.7913 44.3847 28.6697 44.7498L44.6108 44.5064C44.4891 44.4334 44.3431 44.3604 44.2214 44.2874C43.6373 43.8736 43.1748 43.1678 42.8828 42.4377L32.3933 43.1678C32.3446 43.2408 32.2473 43.3139 32.1499 43.3625ZM12.0714 34.9174C11.9984 34.7714 11.9497 34.601 11.9011 34.4063L0 37.0834L12.6799 35.5502C12.2905 35.3068 12.1201 35.0391 12.0714 34.9174ZM5.69499 49.2766L18.6669 49.5199C18.4479 49.3252 18.2288 49.1305 18.0341 48.8872L5.69499 49.2766ZM15.5274 44.3604L4.28341 45.1392L15.7221 44.9688C15.6734 44.7741 15.6004 44.5551 15.5274 44.3604ZM14.6999 39.1765C14.6999 39.0548 14.6999 38.9574 14.6999 38.8357L1.38724 41.1478L14.7486 40.0526C14.7242 39.7606 14.7242 39.4442 14.6999 39.1765Z" fill="#D13E28"/>
<path d="M62.2068 21.7993C62.4015 21.8236 62.6205 21.8236 62.7909 21.7506C63.4724 21.5316 64.3242 20.5581 64.0808 19.8036C63.8374 19.0491 61.6227 17.3455 58.5318 16.6397C56.7795 16.2503 54.4918 16.226 52.2041 16.9561C52.1067 16.4693 51.693 15.7879 51.4983 15.4958C51.5956 15.4715 51.693 15.4228 51.8147 15.3985C51.8147 15.3985 51.8147 15.3985 51.7903 15.3985C53.713 14.8144 54.7838 12.3076 54.2241 9.63048C53.8833 7.97553 52.9829 6.63696 51.8877 5.90683C52.3014 5.51743 52.6421 5.22538 52.7638 5.17671C52.9098 5.10369 53.567 5.07936 54.1267 5.05502C54.1754 5.32273 54.2971 5.51743 54.4675 5.63912C54.7108 5.80948 55.4166 6.02852 56.0007 5.93117C56.2198 5.90683 56.4145 5.83382 56.5605 5.6878C56.6335 5.61478 56.7065 5.54177 56.7308 5.44442C57.9721 5.46876 60.4058 5.46876 60.5032 5.46876C60.6249 5.46876 60.8439 4.95767 60.8682 4.64128C60.8926 4.32489 60.8439 3.93549 60.6979 3.83814C60.6979 3.83814 58.2154 3.6191 56.7308 3.6191C56.7308 3.57043 56.7065 3.54609 56.7065 3.52175L56.6822 3.44874C56.6578 3.40006 56.3901 3.01066 55.6357 3.01066C55.4166 3.01066 55.2219 3.035 55.0272 3.08368C55.2949 2.6456 55.5626 2.20752 55.6113 2.13451C55.66 2.11017 55.806 2.0615 56.0007 2.01282C56.2198 2.40222 56.6578 2.74295 57.534 2.79163C57.7287 2.79163 57.899 2.79163 58.0694 2.76729C58.9212 2.6456 59.1646 2.03716 59.2133 1.50173C59.2133 1.50173 59.2133 1.50173 59.2133 1.4774C59.2133 1.088 58.9212 0.260518 57.7287 0.0414799C56.9012 -0.104545 56.4388 0.163168 56.1954 0.406543C55.9034 0.698594 55.7573 1.13667 55.8304 1.52607C55.8304 1.55041 55.8304 1.55041 55.8304 1.57475C55.514 1.64776 55.3193 1.72077 55.2463 1.81812C55.0759 2.01282 54.4188 3.15669 54.1997 3.49741C53.567 3.49741 52.5204 3.54609 52.1554 3.69212C51.912 3.78947 51.1332 4.51959 50.3787 5.27406C50.2571 5.24972 50.1597 5.24972 50.038 5.24972C49.819 5.24972 49.5999 5.27406 49.3809 5.2984C49.3809 5.2984 45.6573 6.19888 43.4669 7.39143C42.8828 7.70781 42.396 8.04854 42.0066 8.4136C41.0331 7.6348 38.0639 5.32273 37.5042 5.17671C37.0661 5.05502 35.8492 5.17671 35.1191 5.27406C34.827 4.90899 33.8779 3.69212 33.6832 3.49741C33.5858 3.40006 33.3424 3.35139 32.9774 3.30271C32.9774 3.27838 32.9774 3.27838 32.9774 3.25404C33.0017 2.79163 32.7827 2.30487 32.3933 2.01282C32.0769 1.76945 31.4928 1.52607 30.568 1.81812C29.2294 2.2562 28.986 3.2297 29.059 3.66778V3.69212C29.1807 4.30055 29.5701 4.93333 30.568 4.98201C30.7627 4.98201 30.9574 4.98201 31.1764 4.93333C32.1986 4.73863 32.661 4.30055 32.8557 3.8138C33.0991 3.83814 33.2694 3.86248 33.3424 3.88682C33.4398 3.95983 33.8049 4.42224 34.1699 4.88466C33.9509 4.83598 33.7075 4.83598 33.4641 4.88466C32.6123 5.03068 32.3689 5.4931 32.3203 5.54177L32.2959 5.61478C32.2959 5.63912 32.2959 5.6878 32.2716 5.73647C30.5436 5.95551 27.6961 6.56395 27.6961 6.56395C27.5501 6.68564 27.5501 7.14805 27.6231 7.51311C27.6961 7.87818 28.0125 8.4136 28.1585 8.38927C28.2802 8.38927 31.079 8.0242 32.515 7.80516C32.588 7.90251 32.661 7.97553 32.7583 8.04854C32.953 8.17023 33.1964 8.2189 33.4398 8.24324C34.1212 8.26758 34.9244 7.92685 35.1678 7.68348C35.3381 7.51311 35.4355 7.26974 35.4598 6.97769C36.1169 6.90467 36.8714 6.856 37.0661 6.90467C37.4312 7.00202 39.4755 8.58397 40.9358 9.75217C40.9114 9.75217 40.9114 9.75217 40.8871 9.75217C40.7897 9.75217 38.4047 9.87386 36.2873 11.1151C34.1456 12.3563 30.9087 15.6905 29.8135 17.7592C29.5214 17.8566 26.4792 18.7327 25.092 19.0978H25.0677C25.0677 19.0978 24.873 19.1708 24.2645 19.1221C23.8995 19.0978 18.7886 19.1221 18.2775 19.5359C17.8151 19.9253 17.5474 20.4607 17.4987 21.0691V21.1422C17.45 21.7506 17.4013 22.213 17.9124 22.432C18.1071 22.5051 18.3992 22.5294 18.7642 22.5537C19.1293 22.5781 19.5917 22.6024 19.8594 22.6998C18.6912 23.2108 16.8416 24.6468 16.0384 26.4721C15.9167 26.7398 15.7951 27.0562 15.6977 27.3969C14.5538 27.3969 14.4078 27.4699 14.3591 27.4943C14.0914 27.6159 12.7042 29.6603 12.6555 29.782C12.5095 30.074 12.1931 33.603 12.6798 34.5522C12.7042 34.6008 12.9719 35.0876 13.9211 35.1119C13.9454 35.1119 13.9697 35.1119 13.9697 35.1119C13.8237 35.6473 13.629 35.9151 13.5803 36.1098C13.5317 36.3531 13.6533 36.5722 14.3348 36.9129C14.8216 37.1563 15.2596 37.1076 15.4787 37.0589C15.4057 37.7404 15.3813 38.4218 15.4057 39.1276C15.4057 39.59 15.4543 40.0281 15.4787 40.4662C15.357 40.5879 15.2353 40.7339 15.1623 40.9286C13.629 41.1963 13.5803 41.245 13.5073 41.3423C13.4343 41.464 13.4343 41.5857 13.5317 41.8534C13.5803 41.9994 13.8967 42.8026 14.4565 42.9486C14.4808 42.9486 14.5052 42.9486 14.5052 42.9486C14.5052 42.9486 14.5052 42.9486 14.5295 42.9486C14.5538 42.9486 14.9676 42.9243 15.43 42.8756C15.6004 43.0946 15.7951 43.2407 15.9898 43.3624C17.0606 47.4024 19.47 50.2255 22.2445 50.1769C25.0677 50.1282 27.4284 47.0617 28.2802 42.8269C29.0347 42.8999 31.0304 43.046 31.6388 42.6809C32.3933 42.2185 32.515 41.6344 32.515 41.6344C32.515 41.6344 39.5729 41.3667 40.4247 41.172C41.2765 40.9529 41.8849 40.7096 42.25 39.4197C42.4934 38.5922 42.7367 37.5457 42.9071 36.3531C42.9314 36.5965 42.9314 36.8155 42.9558 36.9859C43.2235 38.7626 43.1748 40.1741 43.2235 40.9286C43.2722 41.6831 43.8076 43.1433 44.5864 43.6544C45.2922 44.1412 46.2414 44.3602 46.5334 44.1898C48.5047 47.7675 51.62 50.0795 55.1489 50.1769C61.3793 50.3472 66.6362 43.5327 66.8553 34.9416C67.123 29.4899 65.2247 24.6468 62.2068 21.7993ZM57.7043 0.503894C58.2154 0.601244 58.4831 0.820282 58.6292 1.01498C58.6292 1.16101 58.6048 1.35571 58.5075 1.45306C58.3615 1.59908 57.7774 1.59908 57.3636 1.42872C57.3149 1.38005 57.2663 1.38005 57.2176 1.35571C57.1446 1.33137 57.0959 1.2827 57.0472 1.23402C56.8282 1.01498 56.7795 0.747269 56.7552 0.552569C56.9986 0.479556 57.3149 0.430881 57.7043 0.503894ZM54.5891 4.2032C54.6622 3.69212 55.1732 3.47308 55.66 3.47308C55.9764 3.47308 56.1467 3.57043 56.2441 3.64344C56.2198 3.64344 56.1711 3.64344 56.1467 3.64344C56.0007 3.64344 55.8547 3.74079 55.7817 3.86248C55.6843 3.98417 55.6113 4.17887 55.6113 4.3979C55.6113 4.83598 55.8547 5.2984 56.0494 5.39575C56.0737 5.39575 56.0981 5.39575 56.1467 5.42008C56.0007 5.46876 55.8304 5.4931 55.66 5.4931C55.5626 5.39575 55.4653 5.27406 55.4166 5.12803C55.2949 4.81164 55.4166 4.37357 55.2706 4.32489C55.1246 4.27622 54.8082 4.42224 54.6865 4.3979C54.6621 4.3979 54.6135 4.37357 54.5891 4.37357C54.5648 4.30055 54.5648 4.25188 54.5891 4.2032ZM31.6631 3.10801C31.6145 3.15669 31.5658 3.20536 31.4928 3.25404C31.4198 3.27838 31.3711 3.30271 31.3468 3.35139C30.8843 3.59476 30.2029 3.69212 30.0082 3.54609C29.8622 3.44874 29.8135 3.2297 29.7892 3.05934C29.9352 2.81596 30.2272 2.52391 30.787 2.32921C31.2251 2.18319 31.5901 2.18319 31.8822 2.30487C31.9065 2.52391 31.8822 2.8403 31.6631 3.10801ZM34.8514 6.29624C34.7297 6.36925 34.3159 6.24756 34.1699 6.32057C34.0239 6.39359 34.2186 6.88034 34.1212 7.26974C34.0726 7.41576 33.9996 7.58613 33.9022 7.70781C33.6832 7.73215 33.4885 7.75649 33.3181 7.70781C33.3668 7.70781 33.3911 7.68348 33.4155 7.68348C33.6345 7.56179 33.8535 6.97769 33.7805 6.49094C33.7562 6.24756 33.6345 6.02852 33.5128 5.90683C33.3911 5.78515 33.2208 5.71213 33.0504 5.71213C33.0017 5.71213 32.9774 5.71213 32.9287 5.71213C33.0261 5.61478 33.2208 5.4931 33.5858 5.44442C34.1456 5.34707 34.754 5.54177 34.9244 6.12587C34.9487 6.17455 34.9487 6.24756 34.9731 6.29624C34.9244 6.2719 34.8757 6.2719 34.8514 6.29624ZM14.6512 42.4375C14.4321 42.3402 14.2131 41.9508 14.1158 41.7074C14.3348 41.6587 14.6999 41.5857 15.1136 41.5127C15.0893 41.6587 15.1136 41.8047 15.1136 41.9751C15.1379 42.1211 15.1623 42.2428 15.211 42.3889C14.9676 42.4132 14.7485 42.4375 14.6512 42.4375ZM51.839 20.5337C52.1554 20.485 52.4718 20.5094 52.7882 20.5581C53.1045 20.6067 53.3723 20.7041 53.6643 20.7771C54.1997 20.9475 54.7108 21.1422 55.2219 21.2152C55.733 21.3125 56.2441 21.2882 56.7065 21.1178C57.1689 20.9718 57.6557 20.6797 58.1424 20.3877C58.2884 20.2903 58.4588 20.2173 58.6048 20.12C58.6292 20.0956 58.6778 20.0956 58.7022 20.0713C58.8725 19.9739 59.0429 19.8766 59.2133 19.8036C59.3593 19.7306 59.5053 19.6576 59.6514 19.6089C60.1868 19.3898 60.7709 19.2195 61.355 19.2682C61.9634 19.2925 62.5232 19.5115 63.0099 19.8523C63.0586 19.9009 63.0829 19.9739 63.0343 20.047C62.9856 20.0956 62.9126 20.12 62.8639 20.0956C62.4015 19.8279 61.8661 19.6576 61.355 19.6819C60.8439 19.6819 60.3085 19.8523 59.8461 20.0713C59.8217 20.0713 59.7974 20.0956 59.773 20.0956C59.3106 20.3147 58.8726 20.6067 58.4345 20.8988C58.3128 20.9718 58.1911 21.0691 58.0694 21.1422C57.9477 21.2152 57.8504 21.2882 57.7287 21.3612C57.607 21.4342 57.4853 21.5072 57.3393 21.5802C57.1933 21.6532 57.0716 21.7019 56.9255 21.7506C56.6335 21.8723 56.3414 21.921 56.0251 21.9453C55.7087 21.9696 55.4166 21.9696 55.1246 21.921C54.5405 21.8479 53.9807 21.6532 53.4453 21.5072C53.1776 21.4342 52.9098 21.3612 52.6908 21.3369C52.4474 21.3125 52.2041 21.3125 51.9607 21.3612C51.7173 21.3855 51.4739 21.4585 51.2306 21.5559C51.0602 21.6289 50.8898 21.7019 50.7195 21.7749L50.4518 20.9718C50.6221 20.8988 50.7681 20.8258 50.9385 20.7528C51.2306 20.6311 51.5226 20.5581 51.839 20.5337ZM53.64 29.5143C53.859 29.3682 54.1024 29.2709 54.3214 29.2952C55.4653 29.3196 56.6578 31.5343 56.5848 34.6738C56.5118 37.8134 55.1732 39.9551 54.0537 39.9308C53.7373 39.9308 53.3966 39.7361 53.1045 39.3953C52.9829 39.1763 52.7638 38.6652 52.7151 38.2515C52.6421 37.6674 53.0072 37.2293 53.1289 37.1806C53.2262 37.1319 53.0802 36.6695 52.9829 36.3531C52.9342 36.1828 52.8855 35.5743 52.9098 34.8442C52.9342 34.8929 52.9585 34.9172 53.0072 34.9659C53.0315 36.1341 53.3966 37.0589 53.8347 37.0589C54.3214 37.0833 54.7595 35.9881 54.8082 34.6495C54.8325 33.3109 54.4675 32.2157 53.9807 32.1914C53.8347 32.1914 53.6886 32.2888 53.567 32.4348L53.5183 32.3131C53.8833 31.7533 54.2241 31.875 54.3214 31.8994C54.4431 31.9237 54.3944 31.3153 54.5161 30.9502C54.6378 30.5851 55.1976 30.2931 55.2219 30.1714C55.1976 30.074 54.5405 29.1249 53.64 29.5143ZM53.5426 34.1384L53.567 34.1628C53.5913 34.1871 53.713 34.5035 53.4939 34.6495C53.4209 34.6495 53.2262 34.4061 53.1289 34.1384L51.0115 27.835C51.1332 27.7863 51.2792 27.7376 51.3766 27.6646L53.5426 34.1384ZM51.7903 26.6911C51.5469 26.6911 51.1819 26.7155 50.7195 26.8615C50.3057 27.0075 50.0624 27.1779 49.9163 27.2996L46.3874 16.7371C46.4117 16.664 46.5334 16.4207 47.1175 16.1286C47.7503 15.8366 48.1397 16.0556 48.2857 16.1286L51.7903 26.6911ZM52.3988 4.13019C52.5935 4.05718 53.2019 4.0085 53.8103 3.98417C53.7617 4.03284 53.713 4.10585 53.713 4.17887C53.6886 4.32489 53.3966 4.44658 53.1776 4.42224C52.9585 4.42224 52.6178 4.27622 51.9363 4.90899C51.766 5.07936 51.5469 5.2984 51.2792 5.54177C51.1575 5.4931 51.0602 5.44442 50.9385 5.42008C51.693 4.71429 52.2527 4.2032 52.3988 4.13019ZM49.5269 5.83382C49.6973 5.78515 49.892 5.78515 50.0623 5.78515C51.6686 5.83382 53.2262 7.51311 53.6886 9.70349C53.9564 10.9447 53.8347 12.1859 53.3723 13.1838C52.9342 14.1329 52.2284 14.7414 51.4009 14.9117C51.2306 14.9604 51.0359 14.9604 50.8655 14.9604C52.3257 14.3763 53.2992 12.551 53.0802 10.5066C52.8368 8.12155 51.1332 6.36925 49.2835 6.53961C48.6994 6.58829 48.164 6.856 47.7016 7.22106C48.164 6.51527 48.7725 6.00418 49.5269 5.83382ZM49.4539 11.0907C49.746 12.2346 49.2835 13.3298 48.4074 13.5488C47.872 12.8674 47.4582 12.0156 47.2635 11.0664C47.1418 10.531 47.1175 9.99555 47.1418 9.50879C47.2149 9.48446 47.2635 9.46012 47.3365 9.43578C48.2127 9.19241 49.1619 9.94687 49.4539 11.0907ZM46.3387 6.856C46.363 6.83166 46.363 6.80732 46.3874 6.78299C46.7281 6.6613 47.0688 6.56395 47.3852 6.4666C46.8985 7.12371 46.6064 7.8295 46.5091 8.63264C46.29 10.2876 46.2657 11.4315 47.4582 13.6462C47.7503 14.1573 48.1153 14.571 48.5291 14.8874C48.5291 14.8874 48.7238 15.0821 48.9428 15.1794C49.1619 15.3255 49.4052 15.4228 49.6243 15.5202C49.4296 15.5688 49.0158 15.7149 48.6994 15.8366C48.6264 15.7879 48.4074 15.6175 48.0423 15.5445C47.5312 15.1308 47.0202 14.571 46.6308 13.7679C45.6329 11.6505 45.4869 10.5796 45.5599 9.43578C45.6572 8.04854 46.1197 7.17239 46.3387 6.856ZM38.0639 6.51527C37.2121 5.8825 36.7984 6.10153 36.5793 6.15021C36.336 6.19889 35.9952 6.12587 35.9466 5.95551C35.9222 5.8825 35.8735 5.80948 35.8005 5.76081C36.5063 5.6878 37.2121 5.66346 37.4555 5.71213C37.7719 5.78515 39.6945 7.22106 41.5199 8.68132C41.4225 8.72999 41.2765 8.803 41.1548 8.803C40.9358 8.77867 38.9157 7.14805 38.0639 6.51527ZM40.8627 21.1422C40.5707 22.213 39.7189 24.9145 38.6967 25.8636C37.7232 26.7641 35.4841 28.2244 34.462 28.8815C34.3646 27.8837 34.0239 25.5716 33.9509 25.2065C33.8535 24.7684 33.6345 24.6711 33.3181 24.5494C33.0017 24.4277 30.3733 24.5251 30.3733 24.5251C30.9817 24.1843 31.6388 23.5272 31.9309 23.2352C32.0039 23.2352 32.0525 23.2352 32.1256 23.2352C33.4885 23.2839 35.1434 22.9675 36.555 22.6024C38.3803 22.14 39.7676 21.6532 40.8627 21.1422ZM32.588 32.3131C32.4663 31.51 32.1986 31.0962 32.2716 31.0232C32.3689 30.9502 32.5393 31.0232 32.6853 31.3396C32.8314 31.656 33.1964 32.4348 32.9044 33.7733C32.6366 35.0876 31.5171 36.1341 31.1034 36.3288C30.6896 36.5478 30.1299 36.7182 30.2272 36.4018C30.2272 36.4018 31.006 36.2071 31.6388 35.3066C32.2959 34.4305 32.7097 33.1162 32.588 32.3131ZM32.4176 25.4986C32.515 25.4256 32.661 25.3769 32.7097 25.4986C32.7583 25.6446 33.0261 28.2487 33.0017 28.2974C32.9774 28.3461 32.7827 28.4678 32.7583 28.2C32.734 28.2 32.3203 25.5716 32.4176 25.4986ZM33.3181 35.1119C33.6345 34.5278 33.6832 33.6273 33.7562 33.53C33.7562 33.5056 33.7805 33.5056 33.8049 33.5056C33.8292 33.53 33.8779 33.5786 33.9265 33.603C33.9752 33.6273 33.9996 33.676 34.0482 33.7003C34.0482 33.9924 33.9509 34.7225 33.7562 35.2093C33.4155 36.0124 32.3933 36.5965 32.442 36.1341C32.442 36.1341 33.0017 35.696 33.3181 35.1119ZM31.7605 29.1249C31.6875 29.1979 31.5171 29.2466 31.4928 29.1492C31.4928 29.1492 30.8113 25.6689 30.933 25.6203C31.0547 25.5473 31.3468 25.4742 31.3711 25.5959C31.4198 25.7176 31.8335 29.0762 31.7605 29.1249ZM30.2759 18.173C31.2251 16.2016 34.5106 12.7944 36.6524 11.5532C38.3316 10.5796 40.2543 10.3363 40.8384 10.2876C40.6924 10.7013 40.6194 11.1394 40.6194 11.5775C40.595 12.1373 40.6194 12.697 40.6924 13.1838C40.6924 13.1594 40.668 13.1594 40.668 13.1594C40.5464 13.4271 40.4733 13.7192 40.4003 14.0112C39.5972 14.1086 36.1413 14.6197 35.6058 15.3498C35.6058 15.3498 38.4533 14.717 40.303 14.6684C40.2786 15.1064 40.2786 15.5445 40.303 15.9339C39.4755 16.0069 35.8249 16.4693 33.3668 18.0756C33.3668 18.0756 32.88 18.3677 33.1234 18.3433C33.1234 18.3433 37.6502 17.0534 40.4247 17.0778C40.4733 17.5402 40.522 17.9296 40.4977 18.1243C40.376 18.8057 39.8406 18.5867 39.8406 18.5867C37.4798 18.5624 34.2916 19.3655 32.9287 19.9496C31.5901 20.5337 31.1764 20.5094 30.86 19.4872C30.6896 18.9518 30.7627 18.4163 30.8843 18.0026C30.641 18.4163 30.4219 18.9031 30.3246 19.3898C30.1055 20.3877 29.9595 21.6776 31.3711 22.5537C31.5171 22.6024 31.6388 22.6511 31.7848 22.6754C31.006 22.6024 30.4463 22.4077 30.1299 22.067C29.4241 21.3612 29.2051 20.412 30.2759 18.173ZM26.5766 32.6051C26.6253 32.5565 26.6739 32.5078 26.7226 32.4591C26.7713 32.4104 26.82 32.3618 26.8686 32.3131C26.893 32.2888 26.9417 32.2401 26.966 32.2157C27.039 32.1671 27.0877 32.0941 27.1607 32.0454C27.2094 32.021 27.2337 31.9724 27.2824 31.948C27.3311 31.948 27.3554 31.9237 27.3797 31.9237C27.5988 31.8507 27.7691 31.729 27.9152 31.583C27.9882 31.5586 28.0612 31.51 28.1342 31.4856C28.4019 31.3883 28.7426 31.2909 29.132 31.1692C29.1564 31.1692 29.1807 31.1692 29.1807 31.1449C30.4949 30.8772 31.4684 31.0475 31.6875 31.7533C31.9065 32.4591 31.8092 33.7247 30.9817 34.7712C30.3246 35.5987 29.3754 36.2314 28.4506 36.3288C28.4019 36.3288 28.3532 36.3288 28.3046 36.3531C28.2802 36.3531 28.2559 36.3531 28.2559 36.3531C28.2072 36.3531 28.1829 36.3531 28.1342 36.3531C28.1099 36.3531 28.0612 36.3531 28.0368 36.3531C28.0125 36.3531 27.9882 36.3531 27.9395 36.3531C27.8665 36.3531 27.8178 36.3288 27.7448 36.3288C27.6231 36.3045 27.5014 36.2801 27.3797 36.2558C27.3067 36.2314 27.258 36.2071 27.2094 36.2071C27.1607 36.1828 27.112 36.1828 27.0877 36.1584C27.0147 36.1341 26.9417 36.1098 26.893 36.0611C26.8686 36.0611 26.8686 36.0367 26.8443 36.0367C26.7713 35.9881 26.6983 35.9637 26.6496 35.9151C26.2602 35.6473 26.0655 35.2823 25.9682 34.8442C25.9682 34.8442 25.7491 34.1628 26.1385 33.3596C26.1629 33.3109 26.1872 33.2623 26.2115 33.2379C26.2359 33.1892 26.2602 33.1406 26.2845 33.0919C26.3576 32.9945 26.4306 32.8972 26.5036 32.7998C26.5279 32.6782 26.5523 32.6295 26.5766 32.6051ZM25.092 25.0362C25.238 25.1579 25.3841 25.3526 25.4814 25.6689C25.7978 26.6424 26.4062 30.7312 26.4549 31.0962C26.4792 31.3396 26.4062 31.51 26.2845 31.6803C25.6274 31.8507 24.8973 31.9967 24.7756 31.9967C24.5566 31.9967 24.2645 31.8994 24.1428 31.5586C23.7048 29.5143 22.999 26.2044 22.999 25.9367C22.999 25.7663 23.1693 25.4742 23.5831 25.3282C23.8508 25.2309 24.4836 25.1092 25.092 25.0362ZM19.5917 39.6144C19.5917 39.6874 19.5917 39.7361 19.6161 39.7847C19.3483 39.8091 19.0563 39.8334 18.7399 39.8577C18.7156 39.4683 18.6669 39.0789 18.6425 38.6652C18.4478 35.404 19.8594 31.51 22.1715 30.9502C22.9503 31.51 23.6317 32.5321 24.1428 33.8707C23.4614 34.1871 22.2932 35.2336 21.8794 35.5987C21.6117 35.2579 21.3197 35.0632 21.0276 35.0632C20.1028 35.1119 19.47 37.1563 19.5917 39.6144ZM18.1071 38.6895C18.1315 39.1033 18.1558 39.517 18.2045 39.9064C17.8394 39.9551 17.4743 39.9794 17.158 40.0281C17.1336 39.6874 17.1093 39.371 17.1093 39.0303C17.0849 38.1054 17.158 37.2293 17.2796 36.3775C17.5474 35.5743 18.2045 33.7003 18.4478 33.6273C18.6425 33.5543 18.8372 33.5787 18.9833 33.6273C18.3018 35.2093 18.0341 37.1319 18.1071 38.6895ZM19.2753 20.266C18.9346 20.339 18.5452 20.6311 18.4235 21.1178C18.3505 21.4342 18.4235 21.7749 18.4722 21.994C18.3505 21.994 18.2288 21.9696 18.1801 21.9453C18.0584 21.8966 18.0341 21.7749 18.0828 21.1908V21.1178C18.1315 20.6554 18.3262 20.2417 18.6669 19.9496C19.0563 19.7549 22.7799 19.6089 24.0455 19.6332C24.1428 19.6332 24.2159 19.6332 24.2889 19.6332C24.3862 19.6332 24.4836 19.6332 24.5566 19.6576C23.9968 19.8036 23.1207 20.0226 22.7556 20.0956C22.2202 20.2417 21.5144 20.7528 21.3197 21.0935C21.125 21.4099 21.0763 22.2617 20.8329 22.14C20.5896 21.994 20.4192 21.1178 20.5165 20.8744C20.5896 20.6311 20.8573 20.3877 20.9546 20.2173C21.0276 20.047 19.6161 20.2173 19.2753 20.266ZM13.9697 30.4634C13.775 30.4634 13.556 30.3174 13.483 30.3418C13.41 30.3661 13.3856 31.2909 13.3856 31.8263C13.3613 32.3618 13.337 34.3818 13.6047 34.5278C13.337 34.4548 13.2396 34.3088 13.2396 34.3088C12.8502 33.5543 13.0936 30.3418 13.2153 30.001C13.3126 29.8063 14.4321 28.2487 14.6755 27.9567C14.8216 27.9323 15.211 27.908 15.6004 27.908C15.0163 29.928 14.4808 32.7998 14.2618 34.0654C14.2131 33.676 14.1888 33.2136 14.2131 32.8729C14.3105 32.2157 14.6999 30.3418 14.6755 30.2931C14.6755 30.2444 14.1644 30.4878 13.9697 30.4634ZM15.5273 33.0189C15.4057 33.5787 15.3326 34.1628 15.1623 34.7225C14.9919 35.3066 14.6755 35.842 14.1888 36.2071C14.1644 36.2314 14.1158 36.2314 14.0671 36.1828C14.0427 36.1584 14.0427 36.1098 14.0671 36.0854C14.4808 35.7204 14.7729 35.2093 14.8946 34.6495C15.0163 34.0897 15.0893 33.53 15.1866 32.9459C15.357 31.802 15.5517 30.6581 15.8924 29.5143C16.2088 28.3704 16.8172 27.2996 17.6204 26.4234C18.2045 25.7663 18.9103 25.2065 19.6891 24.7928C19.7134 24.9632 19.7621 25.1579 19.8838 25.3282C19.2023 25.7176 18.5452 26.2287 18.0098 26.8128C17.6204 27.2265 17.2796 27.6646 17.0119 28.1514C16.7199 28.6381 16.5008 29.1492 16.3305 29.6846C15.9898 30.7555 15.7464 31.8994 15.5273 33.0189ZM16.5252 43.0216C16.2575 42.9243 15.7464 42.5105 15.649 41.9021C15.5517 41.245 15.8924 40.7582 16.2818 40.6365C17.9854 40.4418 19.8108 40.2715 20.6626 40.2228C20.5409 40.3202 20.4192 40.4418 20.3218 40.6122C19.9568 41.245 20.1758 41.7804 20.1271 41.8291C20.0785 41.8778 16.0871 41.9751 16.0871 42.1455C16.0628 42.2672 16.2331 42.7296 16.5252 43.0216ZM21.1006 47.1347C20.5165 47.1347 19.9324 46.867 19.397 46.3072C19.3483 46.2098 19.3483 46.0882 19.397 46.0395C19.5917 45.8204 19.9568 45.9665 19.9568 45.9665C19.9568 45.9665 19.2267 45.1877 19.105 44.7009C19.0319 44.4575 19.0319 44.2142 19.0806 44.0681C19.6647 45.5527 20.5896 46.6479 22.1228 46.9156C21.7578 47.0617 21.3927 47.1347 21.1006 47.1347ZM22.9016 46.5019C21.198 46.5019 20.0785 45.5284 19.397 43.3867C19.8108 43.3624 20.2002 43.3137 20.5409 43.265C20.8329 43.7031 21.1493 43.9708 21.49 43.9465C21.9281 43.9221 22.2932 43.4597 22.5609 42.7052C23.145 42.9486 24.0942 42.8269 24.6539 42.7296C24.2889 44.3602 23.6561 45.6744 22.9016 46.5019ZM35.5815 39.8091C34.681 40.2471 32.0769 40.6122 29.7161 40.9043L29.2781 40.9529C27.112 41.2206 22.0498 41.8778 21.5874 41.8534C21.3684 41.8291 21.2223 41.537 21.2467 41.2937C21.2467 41.1233 21.3197 41.0259 21.3684 40.9529C22.5366 40.8556 32.588 39.9064 34.2429 39.3953C36.0196 38.8599 36.409 36.9859 36.0439 35.4526C35.7519 34.3331 34.7784 33.5543 34.2916 33.1649C34.2186 33.0919 34.1212 33.0432 34.0969 33.0189C33.7562 32.6051 33.9752 32.3374 34.1699 32.1671C34.5106 31.875 35.0461 32.1427 35.9222 33.0189C36.4577 33.5787 37.0661 34.8199 37.1634 36.6452C37.1878 38.1298 36.6037 39.298 35.5815 39.8091ZM34.3159 35.5987C34.3159 35.5987 34.608 35.2823 34.7053 34.8199C34.7297 34.6495 34.754 34.4791 34.7784 34.3331C34.8757 34.4305 34.9731 34.5522 35.0461 34.6738C35.0217 34.8199 34.9731 34.9659 34.9244 35.0632C34.827 35.331 34.389 36.0124 34.3159 35.5987ZM38.8184 39.7117C38.429 40.1011 37.6015 40.3445 36.9931 40.4418C36.9201 40.4662 36.8714 40.3445 36.9444 40.2958C37.5528 40.0038 38.4047 39.4197 38.6967 38.2515C39.0861 36.7425 38.502 34.8199 38.2343 34.0654C38.21 33.968 38.3073 33.895 38.4047 33.9681C38.7697 34.2844 39.4268 34.9902 39.6459 36.1098C39.9866 37.7404 39.4755 39.0303 38.8184 39.7117ZM42.031 27.2265C41.8606 27.2509 40.6437 26.6424 40.6194 26.4477C40.6194 26.4477 42.4204 21.6776 42.6394 21.6046C42.8828 21.5316 43.6859 21.9453 43.7102 22.0183C43.7102 22.0913 42.2013 27.2022 42.031 27.2265ZM44.5377 10.8474C44.2213 10.7257 41.4955 11.4801 41.3982 11.9426C41.3008 12.3806 41.3495 14.3033 42.323 15.3255C42.104 15.1551 41.9579 15.0334 41.9336 14.9847C41.3495 14.2059 41.0818 13.1594 41.1305 11.6018C41.1548 11.1151 41.2278 10.677 41.3982 10.2633C41.6416 10.0686 42.2743 9.58181 42.8341 9.33843C43.5886 9.02204 44.5864 8.94903 44.6837 8.63264C44.7568 8.31625 44.9028 7.68348 45.1948 7.29408C45.2192 7.2454 45.2679 7.19673 45.2922 7.17239C45.3895 7.12371 45.4869 7.09937 45.5842 7.0507C45.3409 7.56179 45.0731 8.34059 45.0001 9.36277C44.9271 10.5796 45.0731 11.7235 46.1197 13.9626C46.29 14.3276 46.5091 14.6684 46.7281 14.9604C46.29 14.6197 45.7303 14.0112 45.3895 13.0621C44.7324 11.1881 44.8298 10.969 44.5377 10.8474ZM44.8784 37.1806C44.9271 37.6187 44.9515 38.0324 45.0245 38.4705C45.0975 38.9329 45.0488 39.4197 44.9758 39.8577C44.8784 40.2958 44.7324 40.7339 44.5864 41.1233C44.4647 41.4884 44.4647 41.9264 44.5864 42.2915C44.6107 42.3645 44.5621 42.4375 44.489 42.4619C44.416 42.4862 44.3674 42.4375 44.343 42.3889C44.2457 42.1698 44.197 41.9508 44.1727 41.7074C44.1483 41.464 44.1483 41.245 44.197 41.0016C44.2943 40.5635 44.416 40.1498 44.4647 39.7604C44.5134 39.3467 44.5377 38.9573 44.4647 38.5435C44.3917 38.1298 44.3187 37.6674 44.27 37.2293C44.1727 36.3531 44.124 35.477 44.0996 34.6008C44.0996 33.7247 44.124 32.8485 44.2213 31.948C44.3917 30.1957 44.7811 28.4434 45.4139 26.7641C45.9736 25.2552 46.7768 23.8193 47.7259 22.5051L48.1153 23.6733C47.9693 23.868 47.8476 24.0627 47.7016 24.2817C47.1418 25.1822 46.6551 26.107 46.2414 27.1049C45.6086 28.6625 45.1705 30.3418 44.9515 32.021C44.8298 32.8729 44.7811 33.7247 44.7568 34.5765C44.8054 35.477 44.8054 36.3288 44.8784 37.1806ZM56.3901 46.1368C55.5626 46.3559 54.5891 46.4532 53.8833 46.4289C49.6729 46.3072 46.3874 40.9286 46.5821 34.4061C46.6064 33.3839 46.7281 32.4104 46.8985 31.4613C46.5821 34.2358 46.5821 37.9351 47.9206 41.0503C47.9206 41.0503 48.7968 43.0946 49.0402 42.8513C49.0402 42.8513 47.6773 40.3445 47.8963 39.298C48.1397 38.2515 48.8455 38.3975 48.8455 38.3975C48.8455 38.3975 48.6994 37.3266 48.6751 35.769C49.2349 41.5127 52.4474 45.9421 56.4145 46.0395H56.5605C56.4875 46.0882 56.4388 46.1125 56.3901 46.1368ZM57.3636 45.5527C57.0959 45.5527 56.7795 45.5284 56.6092 45.5284H56.3901C52.1797 45.4067 48.8941 40.0281 49.0888 33.5056C49.1375 31.802 49.4296 30.1471 49.9163 28.5894C49.9893 28.3947 50.0624 28.1757 50.1597 27.9567C50.184 27.9567 50.184 27.9567 50.2084 27.9567C50.2814 27.9567 50.3544 27.9567 50.4518 27.9567L51.693 31.6803C51.4253 32.5321 51.2549 33.5056 51.2306 34.5522C51.1332 37.789 52.3744 40.4175 54.005 40.4662C55.6113 40.5149 56.9986 37.9351 57.0959 34.6982C57.1933 31.4613 55.952 28.8328 54.3214 28.7841C53.6886 28.7598 53.1045 29.1492 52.6178 29.8063L51.8147 27.4212C52.1067 27.1779 52.2771 26.9588 52.3014 26.9345C52.3501 26.8615 52.3744 26.7641 52.3501 26.6911L51.839 25.0848C52.1067 24.7684 52.3744 24.4764 52.6908 24.2087C54.1024 23.0405 55.9277 23.0405 56.9012 23.1378C60.0408 24.7684 62.2311 29.4169 62.0851 34.7955C61.9391 39.59 60.0408 43.6544 57.3636 45.5527ZM46.8011 16.8344C46.7038 16.9804 50.111 26.4721 50.111 26.4721C50.4031 26.7885 50.4031 26.18 50.3057 25.9367C50.2084 25.6689 47.5069 16.9318 47.3609 16.7371C47.1905 16.518 46.8985 16.6884 46.8011 16.8344ZM25.6518 29.9524C25.7248 30.3904 25.7004 31.0475 25.4571 31.2666C25.2137 31.4856 24.7026 31.729 24.8973 31.7533C24.8973 31.7533 25.8951 31.6316 26.0655 31.3883C26.2359 31.1449 25.165 25.742 25.0677 25.6446C24.946 25.5473 24.9703 25.6689 24.9703 25.6689C24.9703 25.7176 25.5788 29.4899 25.6518 29.9524Z" fill="#052249"/>
</svg>
